<mxfile host="app.diagrams.net" modified="2020-12-05T18:13:50.760Z" agent="5.0 (Windows NT 10.0; Win64; x64) AppleWebKit/537.36 (KHTML, like Gecko) Chrome/87.0.4280.88 Safari/537.36" etag="2Lfb943WNvOuxJ-2hlzT" version="13.10.0" type="github">
  <diagram id="yTyNEKzwi70R2GH2oxyH" name="Page-1">
    <mxGraphModel dx="1108" dy="460" grid="1" gridSize="10" guides="1" tooltips="1" connect="1" arrows="1" fold="1" page="1" pageScale="1" pageWidth="1169" pageHeight="827" math="0" shadow="0">
      <root>
        <mxCell id="0" />
        <mxCell id="1" parent="0" />
        <mxCell id="970AJpcgMSf8N2Dsf7il-3" style="edgeStyle=orthogonalEdgeStyle;rounded=0;orthogonalLoop=1;jettySize=auto;html=1;entryX=0.5;entryY=0;entryDx=0;entryDy=0;" parent="1" edge="1">
          <mxGeometry relative="1" as="geometry">
            <mxPoint x="775" y="110" as="sourcePoint" />
            <mxPoint x="775" y="110" as="targetPoint" />
          </mxGeometry>
        </mxCell>
        <mxCell id="3OKt-DnBXVLty_a7GaZp-3" value="" style="shape=link;html=1;" parent="1" edge="1">
          <mxGeometry width="100" relative="1" as="geometry">
            <mxPoint x="50" y="70" as="sourcePoint" />
            <mxPoint x="50" y="70" as="targetPoint" />
          </mxGeometry>
        </mxCell>
        <mxCell id="7Jd9gMAXH_ypXirra_-3-1" value="&lt;&lt;Admins&gt;&gt;" style="swimlane;fontStyle=1;align=center;verticalAlign=top;childLayout=stackLayout;horizontal=1;startSize=26;horizontalStack=0;resizeParent=1;resizeParentMax=0;resizeLast=0;collapsible=1;marginBottom=0;" parent="1" vertex="1">
          <mxGeometry x="320" y="10" width="230" height="160" as="geometry" />
        </mxCell>
        <mxCell id="7Jd9gMAXH_ypXirra_-3-2" value="#email: String&#xa;#adminType:Boolean" style="text;strokeColor=none;fillColor=none;align=left;verticalAlign=top;spacingLeft=4;spacingRight=4;overflow=hidden;rotatable=0;points=[[0,0.5],[1,0.5]];portConstraint=eastwest;" parent="7Jd9gMAXH_ypXirra_-3-1" vertex="1">
          <mxGeometry y="26" width="230" height="54" as="geometry" />
        </mxCell>
        <mxCell id="7Jd9gMAXH_ypXirra_-3-3" value="" style="line;strokeWidth=1;fillColor=none;align=left;verticalAlign=middle;spacingTop=-1;spacingLeft=3;spacingRight=3;rotatable=0;labelPosition=right;points=[];portConstraint=eastwest;" parent="7Jd9gMAXH_ypXirra_-3-1" vertex="1">
          <mxGeometry y="80" width="230" height="10" as="geometry" />
        </mxCell>
        <mxCell id="7Jd9gMAXH_ypXirra_-3-4" value="# viewCanditates();&#xa;#viewCandidatesList();&#xa;# deleteCandidates();" style="text;strokeColor=none;fillColor=none;align=left;verticalAlign=top;spacingLeft=4;spacingRight=4;overflow=hidden;rotatable=0;points=[[0,0.5],[1,0.5]];portConstraint=eastwest;" parent="7Jd9gMAXH_ypXirra_-3-1" vertex="1">
          <mxGeometry y="90" width="230" height="70" as="geometry" />
        </mxCell>
        <mxCell id="7Jd9gMAXH_ypXirra_-3-5" value="Secondary admin" style="swimlane;fontStyle=1;align=center;verticalAlign=top;childLayout=stackLayout;horizontal=1;startSize=26;horizontalStack=0;resizeParent=1;resizeParentMax=0;resizeLast=0;collapsible=1;marginBottom=0;" parent="1" vertex="1">
          <mxGeometry x="170" y="230" width="190" height="170" as="geometry" />
        </mxCell>
        <mxCell id="7Jd9gMAXH_ypXirra_-3-6" value="#colleageName:String" style="text;strokeColor=none;fillColor=none;align=left;verticalAlign=top;spacingLeft=4;spacingRight=4;overflow=hidden;rotatable=0;points=[[0,0.5],[1,0.5]];portConstraint=eastwest;" parent="7Jd9gMAXH_ypXirra_-3-5" vertex="1">
          <mxGeometry y="26" width="190" height="26" as="geometry" />
        </mxCell>
        <mxCell id="7Jd9gMAXH_ypXirra_-3-7" value="" style="line;strokeWidth=1;fillColor=none;align=left;verticalAlign=middle;spacingTop=-1;spacingLeft=3;spacingRight=3;rotatable=0;labelPosition=right;points=[];portConstraint=eastwest;" parent="7Jd9gMAXH_ypXirra_-3-5" vertex="1">
          <mxGeometry y="52" width="190" height="8" as="geometry" />
        </mxCell>
        <mxCell id="7Jd9gMAXH_ypXirra_-3-8" value="- createCandidateList();&#xa;-addCandidatesToList();&#xa;-deleteCandidatesList();&#xa;-addCandidateLetter();&#xa;-removeCandidateLetter();&#xa;-editCandidateLetter();" style="text;strokeColor=none;fillColor=none;align=left;verticalAlign=top;spacingLeft=4;spacingRight=4;overflow=hidden;rotatable=0;points=[[0,0.5],[1,0.5]];portConstraint=eastwest;" parent="7Jd9gMAXH_ypXirra_-3-5" vertex="1">
          <mxGeometry y="60" width="190" height="110" as="geometry" />
        </mxCell>
        <mxCell id="7Jd9gMAXH_ypXirra_-3-9" value="Main Admin" style="swimlane;fontStyle=1;align=center;verticalAlign=top;childLayout=stackLayout;horizontal=1;startSize=26;horizontalStack=0;resizeParent=1;resizeParentMax=0;resizeLast=0;collapsible=1;marginBottom=0;" parent="1" vertex="1">
          <mxGeometry x="620" y="220" width="190" height="160" as="geometry" />
        </mxCell>
        <mxCell id="7Jd9gMAXH_ypXirra_-3-11" value="" style="line;strokeWidth=1;fillColor=none;align=left;verticalAlign=middle;spacingTop=-1;spacingLeft=3;spacingRight=3;rotatable=0;labelPosition=right;points=[];portConstraint=eastwest;" parent="7Jd9gMAXH_ypXirra_-3-9" vertex="1">
          <mxGeometry y="26" width="190" height="8" as="geometry" />
        </mxCell>
        <mxCell id="7Jd9gMAXH_ypXirra_-3-12" value="-addSecondaryAdmin();&#xa;-deleteSecondaryAdmin();&#xa;- addVotingStartTime();&#xa;-addVotingEndTime();&#xa;-addSeatsForEachCollege();&#xa;-addTotalNumberOfSeats();&#xa;" style="text;strokeColor=none;fillColor=none;align=left;verticalAlign=top;spacingLeft=4;spacingRight=4;overflow=hidden;rotatable=0;points=[[0,0.5],[1,0.5]];portConstraint=eastwest;" parent="7Jd9gMAXH_ypXirra_-3-9" vertex="1">
          <mxGeometry y="34" width="190" height="126" as="geometry" />
        </mxCell>
        <mxCell id="7Jd9gMAXH_ypXirra_-3-19" value="" style="verticalLabelPosition=bottom;verticalAlign=top;html=1;shape=mxgraph.basic.acute_triangle;dx=0.5;" parent="1" vertex="1">
          <mxGeometry x="370" y="170" width="40" height="30" as="geometry" />
        </mxCell>
        <mxCell id="7Jd9gMAXH_ypXirra_-3-20" style="edgeStyle=orthogonalEdgeStyle;rounded=0;orthogonalLoop=1;jettySize=auto;html=1;" parent="1" source="7Jd9gMAXH_ypXirra_-3-8" target="7Jd9gMAXH_ypXirra_-3-19" edge="1">
          <mxGeometry relative="1" as="geometry">
            <mxPoint x="370" y="260" as="targetPoint" />
            <mxPoint x="300" y="465" as="sourcePoint" />
          </mxGeometry>
        </mxCell>
        <mxCell id="7Jd9gMAXH_ypXirra_-3-21" value="" style="verticalLabelPosition=bottom;verticalAlign=top;html=1;shape=mxgraph.basic.acute_triangle;dx=0.5;" parent="1" vertex="1">
          <mxGeometry x="470" y="170" width="40" height="30" as="geometry" />
        </mxCell>
        <mxCell id="7Jd9gMAXH_ypXirra_-3-30" style="edgeStyle=orthogonalEdgeStyle;rounded=0;orthogonalLoop=1;jettySize=auto;html=1;entryX=0.5;entryY=1;entryDx=0;entryDy=0;entryPerimeter=0;" parent="1" source="7Jd9gMAXH_ypXirra_-3-12" target="7Jd9gMAXH_ypXirra_-3-21" edge="1">
          <mxGeometry relative="1" as="geometry" />
        </mxCell>
        <mxCell id="7Jd9gMAXH_ypXirra_-3-37" value="student" style="swimlane;fontStyle=1;align=center;verticalAlign=top;childLayout=stackLayout;horizontal=1;startSize=30;horizontalStack=0;resizeParent=1;resizeParentMax=0;resizeLast=0;collapsible=1;marginBottom=0;" parent="1" vertex="1">
          <mxGeometry x="655" y="422" width="200" height="100" as="geometry" />
        </mxCell>
        <mxCell id="7Jd9gMAXH_ypXirra_-3-39" value="" style="line;strokeWidth=1;fillColor=none;align=left;verticalAlign=middle;spacingTop=-1;spacingLeft=3;spacingRight=3;rotatable=0;labelPosition=right;points=[];portConstraint=eastwest;" parent="7Jd9gMAXH_ypXirra_-3-37" vertex="1">
          <mxGeometry y="30" width="200" height="70" as="geometry" />
        </mxCell>
        <mxCell id="7Jd9gMAXH_ypXirra_-3-43" value="Candidates" style="swimlane;fontStyle=1;align=center;verticalAlign=top;childLayout=stackLayout;horizontal=1;startSize=26;horizontalStack=0;resizeParent=1;resizeParentMax=0;resizeLast=0;collapsible=1;marginBottom=0;" parent="1" vertex="1">
          <mxGeometry x="70" y="510" width="190" height="130" as="geometry" />
        </mxCell>
        <mxCell id="7Jd9gMAXH_ypXirra_-3-44" value="+ Letter : String" style="text;strokeColor=none;fillColor=none;align=left;verticalAlign=top;spacingLeft=4;spacingRight=4;overflow=hidden;rotatable=0;points=[[0,0.5],[1,0.5]];portConstraint=eastwest;" parent="7Jd9gMAXH_ypXirra_-3-43" vertex="1">
          <mxGeometry y="26" width="190" height="34" as="geometry" />
        </mxCell>
        <mxCell id="7Jd9gMAXH_ypXirra_-3-45" value="" style="line;strokeWidth=1;fillColor=none;align=left;verticalAlign=middle;spacingTop=-1;spacingLeft=3;spacingRight=3;rotatable=0;labelPosition=right;points=[];portConstraint=eastwest;" parent="7Jd9gMAXH_ypXirra_-3-43" vertex="1">
          <mxGeometry y="60" width="190" height="10" as="geometry" />
        </mxCell>
        <mxCell id="7Jd9gMAXH_ypXirra_-3-46" value="#editLetter();" style="text;strokeColor=none;fillColor=none;align=left;verticalAlign=top;spacingLeft=4;spacingRight=4;overflow=hidden;rotatable=0;points=[[0,0.5],[1,0.5]];portConstraint=eastwest;" parent="7Jd9gMAXH_ypXirra_-3-43" vertex="1">
          <mxGeometry y="70" width="190" height="60" as="geometry" />
        </mxCell>
        <mxCell id="7Jd9gMAXH_ypXirra_-3-63" value="add/delete" style="line;strokeWidth=2;html=1;" parent="1" vertex="1">
          <mxGeometry x="360" y="360" width="260" height="10" as="geometry" />
        </mxCell>
        <mxCell id="7Jd9gMAXH_ypXirra_-3-64" value="" style="line;strokeWidth=2;direction=south;html=1;" parent="1" vertex="1">
          <mxGeometry x="170" y="400" width="10" height="110" as="geometry" />
        </mxCell>
        <mxCell id="7Jd9gMAXH_ypXirra_-3-65" value="Add/delete/modify" style="text;html=1;strokeColor=none;fillColor=none;align=center;verticalAlign=middle;whiteSpace=wrap;rounded=0;" parent="1" vertex="1">
          <mxGeometry x="100" y="450" width="40" height="20" as="geometry" />
        </mxCell>
        <mxCell id="7Jd9gMAXH_ypXirra_-3-69" value="" style="line;strokeWidth=2;direction=south;html=1;" parent="1" vertex="1">
          <mxGeometry x="750" y="522" width="10" height="54" as="geometry" />
        </mxCell>
        <mxCell id="7Jd9gMAXH_ypXirra_-3-70" value="Vote" style="line;strokeWidth=2;html=1;" parent="1" vertex="1">
          <mxGeometry x="260" y="570" width="494" height="10" as="geometry" />
        </mxCell>
      </root>
    </mxGraphModel>
  </diagram>
</mxfile>
